<mxfile host="app.diagrams.net" agent="Mozilla/5.0 (Windows NT 10.0; Win64; x64) AppleWebKit/537.36 (KHTML, like Gecko) Chrome/138.0.0.0 Safari/537.36" version="28.0.4">
  <diagram name="PÃ¡gina-1" id="5G2dNIG-pCKi1MRLpJfh">
    <mxGraphModel dx="633" dy="781" grid="1" gridSize="10" guides="1" tooltips="1" connect="1" arrows="1" fold="1" page="1" pageScale="1" pageWidth="827" pageHeight="1169" math="0" shadow="0">
      <root>
        <mxCell id="0" />
        <mxCell id="1" parent="0" />
        <mxCell id="AMCZcO4HT21PhlENwMg7-7" style="edgeStyle=none;curved=1;rounded=0;orthogonalLoop=1;jettySize=auto;html=1;entryX=0;entryY=0.25;entryDx=0;entryDy=0;fontSize=12;startSize=8;endSize=8;exitX=1;exitY=0.5;exitDx=0;exitDy=0;" edge="1" parent="1" source="AMCZcO4HT21PhlENwMg7-1" target="AMCZcO4HT21PhlENwMg7-2">
          <mxGeometry relative="1" as="geometry" />
        </mxCell>
        <mxCell id="AMCZcO4HT21PhlENwMg7-8" value="1. Abrir Apartado Recursos" style="edgeLabel;html=1;align=center;verticalAlign=middle;resizable=0;points=[];fontSize=12;" vertex="1" connectable="0" parent="AMCZcO4HT21PhlENwMg7-7">
          <mxGeometry x="-0.0319" y="-1" relative="1" as="geometry">
            <mxPoint x="3" as="offset" />
          </mxGeometry>
        </mxCell>
        <mxCell id="AMCZcO4HT21PhlENwMg7-1" value=":Administrador" style="html=1;whiteSpace=wrap;" vertex="1" parent="1">
          <mxGeometry x="40" y="80" width="110" height="50" as="geometry" />
        </mxCell>
        <mxCell id="AMCZcO4HT21PhlENwMg7-9" style="edgeStyle=none;curved=1;rounded=0;orthogonalLoop=1;jettySize=auto;html=1;entryX=0.5;entryY=0;entryDx=0;entryDy=0;fontSize=12;startSize=8;endSize=8;" edge="1" parent="1" source="AMCZcO4HT21PhlENwMg7-2" target="AMCZcO4HT21PhlENwMg7-3">
          <mxGeometry relative="1" as="geometry" />
        </mxCell>
        <mxCell id="AMCZcO4HT21PhlENwMg7-10" value="2. Solicitar Listado Recursos" style="edgeLabel;html=1;align=center;verticalAlign=middle;resizable=0;points=[];fontSize=12;" vertex="1" connectable="0" parent="AMCZcO4HT21PhlENwMg7-9">
          <mxGeometry x="0.0113" y="1" relative="1" as="geometry">
            <mxPoint as="offset" />
          </mxGeometry>
        </mxCell>
        <mxCell id="AMCZcO4HT21PhlENwMg7-2" value=":UI_Recursos" style="html=1;whiteSpace=wrap;" vertex="1" parent="1">
          <mxGeometry x="304" y="150" width="110" height="50" as="geometry" />
        </mxCell>
        <mxCell id="AMCZcO4HT21PhlENwMg7-12" style="edgeStyle=none;curved=1;rounded=0;orthogonalLoop=1;jettySize=auto;html=1;entryX=0;entryY=0.75;entryDx=0;entryDy=0;fontSize=12;startSize=8;endSize=8;exitX=0.5;exitY=1;exitDx=0;exitDy=0;" edge="1" parent="1" source="AMCZcO4HT21PhlENwMg7-3" target="AMCZcO4HT21PhlENwMg7-5">
          <mxGeometry relative="1" as="geometry" />
        </mxCell>
        <mxCell id="AMCZcO4HT21PhlENwMg7-14" value="3. Consultar Recursos&amp;nbsp;" style="edgeLabel;html=1;align=center;verticalAlign=middle;resizable=0;points=[];fontSize=12;" vertex="1" connectable="0" parent="AMCZcO4HT21PhlENwMg7-12">
          <mxGeometry x="-0.0971" y="2" relative="1" as="geometry">
            <mxPoint x="-20" as="offset" />
          </mxGeometry>
        </mxCell>
        <mxCell id="AMCZcO4HT21PhlENwMg7-17" style="edgeStyle=none;curved=1;rounded=0;orthogonalLoop=1;jettySize=auto;html=1;entryX=0.75;entryY=1;entryDx=0;entryDy=0;fontSize=12;startSize=8;endSize=8;" edge="1" parent="1" source="AMCZcO4HT21PhlENwMg7-3" target="AMCZcO4HT21PhlENwMg7-2">
          <mxGeometry relative="1" as="geometry">
            <Array as="points">
              <mxPoint x="290" y="260" />
            </Array>
          </mxGeometry>
        </mxCell>
        <mxCell id="AMCZcO4HT21PhlENwMg7-18" value="5. Mostrar Listado" style="edgeLabel;html=1;align=center;verticalAlign=middle;resizable=0;points=[];fontSize=12;" vertex="1" connectable="0" parent="AMCZcO4HT21PhlENwMg7-17">
          <mxGeometry x="0.167" y="14" relative="1" as="geometry">
            <mxPoint as="offset" />
          </mxGeometry>
        </mxCell>
        <mxCell id="AMCZcO4HT21PhlENwMg7-3" value=":SistemaRecursos" style="html=1;whiteSpace=wrap;" vertex="1" parent="1">
          <mxGeometry x="40" y="250" width="110" height="50" as="geometry" />
        </mxCell>
        <mxCell id="AMCZcO4HT21PhlENwMg7-15" style="edgeStyle=none;curved=1;rounded=0;orthogonalLoop=1;jettySize=auto;html=1;entryX=1;entryY=0.5;entryDx=0;entryDy=0;fontSize=12;startSize=8;endSize=8;" edge="1" parent="1" source="AMCZcO4HT21PhlENwMg7-5" target="AMCZcO4HT21PhlENwMg7-3">
          <mxGeometry relative="1" as="geometry" />
        </mxCell>
        <mxCell id="AMCZcO4HT21PhlENwMg7-16" value="4. Devolver Listado" style="edgeLabel;html=1;align=center;verticalAlign=middle;resizable=0;points=[];fontSize=12;" vertex="1" connectable="0" parent="AMCZcO4HT21PhlENwMg7-15">
          <mxGeometry x="-0.0289" y="1" relative="1" as="geometry">
            <mxPoint y="-15" as="offset" />
          </mxGeometry>
        </mxCell>
        <mxCell id="AMCZcO4HT21PhlENwMg7-5" value=":BD_Recursos" style="html=1;whiteSpace=wrap;" vertex="1" parent="1">
          <mxGeometry x="304" y="350" width="110" height="50" as="geometry" />
        </mxCell>
      </root>
    </mxGraphModel>
  </diagram>
</mxfile>
